<?xml version="1.0" encoding="UTF-8" standalone="no"?>
<svg width="300" height="300" xmlns="http://www.w3.org/2000/svg" xmlns:xlink="http://www.w3.org/1999/xlink">
  <defs>
    <!-- Diablos Rojos colors gradient -->
    <linearGradient id="diablosGradient" x1="0%" y1="0%" x2="100%" y2="100%">
      <stop offset="0%" stop-color="#e40520" />
      <stop offset="100%" stop-color="#8b0000" />
    </linearGradient>
    <filter id="innerShadow" x="-50%" y="-50%" width="200%" height="200%">
      <feGaussianBlur in="SourceAlpha" stdDeviation="3" result="blur"/>
      <feOffset in="blur" dx="0" dy="0" result="offsetBlur"/>
      <feComposite in="SourceGraphic" in2="offsetBlur" operator="over"/>
    </filter>
  </defs>

  <!-- Background to match site -->
  <rect width="100%" height="100%" fill="#1a1a1a" />
  
  <!-- Main token -->
  <g transform="translate(150, 150)">
    <animateTransform attributeName="transform" type="translate" values="150,150; 150,145; 150,150" dur="4s" repeatCount="indefinite" />
    
    <!-- Outer coin -->
    <circle cx="0" cy="0" r="100" fill="url(#diablosGradient)" filter="url(#innerShadow)">
      <animate attributeName="r" values="100;105;100" dur="4s" repeatCount="indefinite" />
    </circle>
    
    <!-- Inner circle -->
    <circle cx="0" cy="0" r="85" fill="#1a1a1a" opacity="0.3" />
    
    <!-- Team emblem -->
    <g transform="translate(0, -15) scale(0.8)">
      <!-- Diablos Rojos circular emblem -->
      <circle cx="0" cy="0" r="60" fill="#e40520" stroke="#ffffff" stroke-width="3" />
      
      <!-- Devil horns -->
      <path d="M-30,-20 L-15,-60 L0,-30 L15,-60 L30,-20 Z" 
            fill="#000000" />
      
      <!-- Baseball -->
      <circle cx="0" cy="20" r="25" fill="#ffffff" stroke="#000000" stroke-width="1" />
      <path d="M-20,10 C-10,15 10,15 20,10 M-20,30 C-10,25 10,25 20,30" 
            fill="none" stroke="#000000" stroke-width="1" />
      <path d="M-10,0 C-5,10 5,10 10,0 M-10,40 C-5,30 5,30 10,40" 
            fill="none" stroke="#000000" stroke-width="1" />
      
      <!-- DR text -->
      <text x="0" y="-5" font-family="Arial, sans-serif" font-size="24" font-weight="bold" text-anchor="middle" fill="white">DR</text>
    </g>
    
    <!-- Team name -->
    <text x="0" y="70" font-family="Arial, sans-serif" font-size="16" font-weight="bold" text-anchor="middle" fill="white">DIABLOS ROJOS</text>
    
    <!-- Animated pulse rings -->
    <circle cx="0" cy="0" r="110" stroke="#e40520" stroke-width="2" fill="none" opacity="0">
      <animate attributeName="r" values="110;140;170" dur="3s" repeatCount="indefinite" />
      <animate attributeName="opacity" values="0.7;0.2;0" dur="3s" repeatCount="indefinite" />
    </circle>
  </g>
</svg>
