<?xml version="1.0" encoding="UTF-8" standalone="no"?>
<svg width="300" height="300" xmlns="http://www.w3.org/2000/svg" xmlns:xlink="http://www.w3.org/1999/xlink">
  <defs>
    <!-- PSG colors gradient -->
    <linearGradient id="psgGradient" x1="0%" y1="0%" x2="100%" y2="100%">
      <stop offset="0%" stop-color="#004170" />
      <stop offset="100%" stop-color="#002d5c" />
    </linearGradient>
    <filter id="innerShadow" x="-50%" y="-50%" width="200%" height="200%">
      <feGaussianBlur in="SourceAlpha" stdDeviation="3" result="blur"/>
      <feOffset in="blur" dx="0" dy="0" result="offsetBlur"/>
      <feComposite in="SourceGraphic" in2="offsetBlur" operator="over"/>
    </filter>
  </defs>

  <!-- Background to match site -->
  <rect width="100%" height="100%" fill="#1a1a1a" />
  
  <!-- Main token -->
  <g transform="translate(150, 150)">
    <animateTransform attributeName="transform" type="translate" values="150,150; 150,145; 150,150" dur="4s" repeatCount="indefinite" />
    
    <!-- Outer coin -->
    <circle cx="0" cy="0" r="100" fill="url(#psgGradient)" filter="url(#innerShadow)">
      <animate attributeName="r" values="100;105;100" dur="4s" repeatCount="indefinite" />
    </circle>
    
    <!-- Inner circle -->
    <circle cx="0" cy="0" r="85" fill="#1a1a1a" opacity="0.3" />
    
    <!-- Team emblem -->
    <g transform="translate(0, -15) scale(0.8)">
      <!-- PSG shield -->
      <path d="M0,-70 C60,-70 80,-40 80,20 C80,70 40,90 0,110 C-40,90 -80,70 -80,20 C-80,-40 -60,-70 0,-70" 
            fill="#004170" stroke="#ffffff" stroke-width="3" />
      
      <!-- Eiffel Tower silhouette -->
      <path d="M0,-50 L10,-20 L5,-20 L15,20 L10,20 L15,50 L-15,50 L-10,20 L-15,20 L-5,-20 L-10,-20 Z" 
            fill="#e30613" />
      
      <!-- PSG text -->
      <text x="0" y="80" font-family="Arial, sans-serif" font-size="24" font-weight="bold" text-anchor="middle" fill="white">PSG</text>
    </g>
    
    <!-- Team name -->
    <text x="0" y="70" font-family="Arial, sans-serif" font-size="14" font-weight="bold" text-anchor="middle" fill="white">PARIS SAINT-GERMAIN</text>
    
    <!-- Animated pulse rings -->
    <circle cx="0" cy="0" r="110" stroke="#e30613" stroke-width="2" fill="none" opacity="0">
      <animate attributeName="r" values="110;140;170" dur="3s" repeatCount="indefinite" />
      <animate attributeName="opacity" values="0.7;0.2;0" dur="3s" repeatCount="indefinite" />
    </circle>
  </g>
</svg>
