<?xml version="1.0" encoding="UTF-8" standalone="no"?>
<svg width="1920" height="1080" xmlns="http://www.w3.org/2000/svg">
  <rect width="100%" height="100%" fill="#0a0a0a"/>
  <g fill="#222222">
    <rect x="100" y="100" width="200" height="200" rx="20"/>
    <rect x="400" y="200" width="150" height="150" rx="15"/>
    <rect x="650" y="100" width="180" height="180" rx="18"/>
    <rect x="900" y="200" width="160" height="160" rx="16"/>
    <rect x="1150" y="100" width="190" height="190" rx="19"/>
    <rect x="1400" y="200" width="140" height="140" rx="14"/>
    <rect x="1650" y="100" width="170" height="170" rx="17"/>
    <rect x="100" y="400" width="180" height="180" rx="18"/>
    <rect x="350" y="500" width="150" height="150" rx="15"/>
    <rect x="600" y="400" width="200" height="200" rx="20"/>
    <rect x="850" y="500" width="160" height="160" rx="16"/>
    <rect x="1100" y="400" width="190" height="190" rx="19"/>
    <rect x="1350" y="500" width="140" height="140" rx="14"/>
    <rect x="1600" y="400" width="170" height="170" rx="17"/>
    <rect x="100" y="700" width="200" height="200" rx="20"/>
    <rect x="400" y="800" width="150" height="150" rx="15"/>
    <rect x="650" y="700" width="180" height="180" rx="18"/>
    <rect x="900" y="800" width="160" height="160" rx="16"/>
    <rect x="1150" y="700" width="190" height="190" rx="19"/>
    <rect x="1400" y="800" width="140" height="140" rx="14"/>
    <rect x="1650" y="700" width="170" height="170" rx="17"/>
  </g>
</svg>
